<?xml version="1.0" encoding="utf-8"?>
<!-- Generator: Adobe Illustrator 22.0.1, SVG Export Plug-In . SVG Version: 6.00 Build 0)  -->
<svg version="1.1" id="Layer_1" xmlns="http://www.w3.org/2000/svg" xmlns:xlink="http://www.w3.org/1999/xlink" x="0px" y="0px"
	 viewBox="0 0 371.5 93.4" style="enable-background:new 0 0 371.5 93.4;" xml:space="preserve">
<style type="text/css">
	.st0{fill:#ED1C24;}
	.st1{fill:#F6871F;}
	.st2{fill:#9F0C10;}
	.st3{fill:#A50D12;}
	.st4{fill:#FFCD05;}
	.st5{fill:#FAAC56;}
	.st6{fill:#7F1013;}
	.st7{fill:#0067B1;}
</style>
<title>Asset 2</title>
<g>
	<path class="st0" d="M24.7,78.3c0-3,4.6-17.2-0.4-15.7C18.9,64.3,19.3,77.2,24.7,78.3z"/>
	<path class="st1" d="M20.4,65.9c1.6,4,3.8,8.7,4.1,13.1c-0.9-0.5-1.8-1.1-2.6-1.8C22,77.2,18.3,71.6,20.4,65.9z"/>
	<path class="st2" d="M60.7,43.5c0.6,3.7,11.8,13.5,14.6,10c1.3-1.6-3.8-7.9-4.8-8.6C69.4,44,60.7,40.6,60.7,43.5z"/>
	<path class="st0" d="M44.4,36.2c3.1-1.6,9.3-11.5,4.2-13.8C43.9,20.2,41.1,33.7,44.4,36.2z"/>
	<path class="st0" d="M66.2,87.4c3.3-1.1,9.4-1.4,12.2-3.3c3.9-2.7,4.5-9.7,3.6-13.8c-0.9-4.3-2.3-8.7-5.4-5.3
		c-2.8,3.1-3.1,8.2-6.7,11.4c2.9-4.5,5.3-11,3.9-16.4C71.4,51,61.1,51.9,56,45.3c-3-3.9-3.9-13.8-6.9-4c-1.2,3.6-1.5,7.5-0.9,11.3
		c0-0.1,2.6,7.2,2.5,7.4c-1.4,2.2-8.2-8-9.6-7.7C37.2,52.9,44.4,69,44.4,69c-3.4,3-5.8-10.7-9.4-6.7c-3,3.3,4.2,16.3,4.4,16.1
		c-3.8,2.2-6-6.1-8.6-5.2c-6.6,2.2,8.7,11,9.1,11.2c3.6,1.6,5.3,2.8,9.3,3.1C54.9,87.8,60.6,87.8,66.2,87.4z"/>
	<path class="st3" d="M69.7,78.2c-0.5,0.9-4.8,7-4.5,7.4c3.4,4.2,13.4-5.6,14.3-7.8c0.8-2,2.4-11.6-0.5-12.8
		C77.5,64.4,71.9,76.5,69.7,78.2z"/>
	<path class="st4" d="M60.3,81.1c3.9-9.1,2.5-19.4-4-24.8c0.6,2.1,2.6,9.4,2.6,10.8C58.9,70.7,60.9,77.8,60.3,81.1z"/>
	<path class="st5" d="M56.2,47.9c2.1,3.4,2.7,3.7,5.2,5.4c0.8,0.6,8.9,4.7,7,5.5c-1.8,0.4-2.4-2.4-4.4-1.9c-0.7,1.1,4.8,10,3.6,11.3
		c0.9-1-0.1-5.8,1.2-6.2c1.8-0.5,0.9,11.9,0.6,11.8c4.3,1.7,3.3-15.5,2.4-17.2C68.5,50.3,60.6,52.9,56.2,47.9z"/>
	<path class="st3" d="M57,86.6c1.4-1.2,5.8-8.5,2.4-9.2C56.7,76.9,55.8,86.2,57,86.6z"/>
	<path class="st5" d="M52.7,54c2.8,5.8,2.8,9.8,2.9,16.1c0.1,2.2,1.5,16.3,1.5,16.3c4.9,0.3,9.5-16.6,9.5-19.9
		c1,2.7,1.2,5.6,0.8,8.4c-0.4,2.2-5.3,8.3-4.8,9.7c1.1,3.2,13-4.9,14.4-6.1c-4.1,8.2-13.7,9.1-21.7,9.1c-2.1-1.6-5.5-2.6-8.1-3.7
		c0.4,0.2-0.3-1.6-1.3-1.9c-1.6-0.6-5-0.3-6.1-1.8c1.5-0.5,2.1-0.6,2.1-2.6c0.8,0.9,1.9,1.4,3.2,1.4c-1.5-2.8-1.3-5.8-3.8-8.3
		c2.4,1.3,4.6,3,6.6,4.9c1.6,1.5,3.4,5.7,5.2,6.6c0.2,0.1-1.4-11.3-1.5-13.1C51.6,67.3,51.9,54.8,52.7,54z"/>
	<path class="st2" d="M43.3,77.7c0.5-3.2-2.4-9.5-6.1-9.5C34.5,68.9,42.8,79.1,43.3,77.7z"/>
	<path class="st2" d="M44.7,57.4c-0.2-0.2-1.9-1.9-2.2-1.3c-0.4,0.8,4.9,18.5,6,18.9c2.2,0.8,0.4-9.7,0.3-9.7
		c-0.6-3,0.4-2.9-1.4-5.3C46.7,58.9,45.4,58.5,44.7,57.4z"/>
	<path class="st6" d="M51.4,36.1c-0.9,2.2-2.8,5.3-2.5,7.6c0.5,4.2,1.9,3.4,4.6,6c3.8,3.5,7.9,10.7,9.3,15.7c-0.5-1-0.2-5.8-1.1-7.9
		c-1.5-3.6-3.9-6.6-5.6-10C55.5,46.3,51.4,36.1,51.4,36.1z"/>
	<path d="M77.7,79c-4.5,4.5-10.6,4.7-15,8.5h40L68.7,12.8l-9.2,17.3L44.5,3.7L1.6,87.5h54.1c0-6.3-25.7-0.4-24.5-13.2
		c2.1,3.2,10,8.1,8.3,1.8c-1.5-5.3-6.3-8.5-3.8-14.7c0.8,1.4,7.3,12.3,10.2,7.9c-1.1,1.7-6.3-16.6-4.4-16.2
		c2.3,0.6,7.6,12.5,10.2,6.8c1-2.2-2.7-8.9-2.7-11.7c0-2,0.4-9.6,2.8-10.8c-0.3,0.1,3.2,8.4,4.1,9.5c1.9,2.4,4.3,3.5,7,4.7
		C68.7,54.1,73,56,73.4,63.1c0.1,2.4-6.4,15.4-6,15.8c3.4,3.2,10.3-11.5,11.5-13.1C80.3,69.7,80.6,75.5,77.7,79z M26.5,66.7
		c-1.1,3.6-1.7,7.3-1.9,11.1C17,73.5,23.4,67.3,25,62.3C24.9,62.4,26.6,62.3,26.5,66.7z M49,30c-1,2.3-2.5,4.4-4.4,6
		C39.9,30.4,50.4,13.9,49,30z M73.2,53.6c-4.9-4.1-10.9-2.9-11.8-10.8c3.2,0.3,7.5,1.5,9.9,3.8c0.8,0.8,4.4,6.5,3.3,7.2
		C74.1,53.9,73.6,53.9,73.2,53.6z"/>
</g>
<path d="M334,64c2.8,0,5,2.3,5,5c0,2.8-2.3,5-5,5c-2.8,0-5-2.3-5-5C328.9,66.3,331.1,64.1,334,64C333.9,64,333.9,64,334,64z
	 M334,73.2c2.2,0.1,4.1-1.7,4.2-3.9c0.1-2.2-1.7-4.1-3.9-4.2c-2.2-0.1-4.1,1.7-4.2,3.9c0,0,0,0.1,0,0.1c-0.1,2.1,1.5,3.9,3.6,4.1
	C333.7,73.2,333.8,73.2,334,73.2z M332.1,67.1c0-0.4,0-0.5-0.6-0.5v-0.2h2.7c0.9,0,1.7,0.4,1.7,1.4c-0.1,0.7-0.5,1.2-1.1,1.5
	l1.1,1.6c0.2,0.4,0.5,0.6,0.7,0.6v0.2h-1.2c-0.2,0-0.5-0.4-0.9-1l-0.9-1.4h-0.2v1.6c0,0.4,0,0.5,0.6,0.5v0.2h-2.5v-0.2
	c0.6,0,0.6-0.1,0.6-0.5v-3.8H332.1z M333.5,69h0.5c0.6,0,0.9-0.6,0.9-1.2s-0.4-1.1-0.9-1.1h-0.5V69z"/>
<path class="st7" d="M237.5,81.8c0.1,0.9-0.5,1.7-1.3,1.8c-1.3,0.3-1.4-1.6-1.9-1.6c-1.2,0-2.3,3.5-3.9,2.1c-1-0.9,0.6-3.2,1.4-3.8
	s4.5-3.8,4.3-2c-0.2,1.6-3.9,2.7-3.9,4.4c1.6,0,2.2-3.1,3.8-2.2c0.5,0.3-0.6,1.7,0.6,1.8C236.8,82.3,237.5,81.8,237.5,81.8z"/>
<path class="st7" d="M241,80.9c-0.1,0.6-0.3,1.1-0.5,1.7c0.7-0.8,2-2.7,3.2-2.4c1.6,0.3,0.2,2.5,2.3,1.4c0,3.9-1.9,0.9-3,0.6
	c-1.7-0.5-1.8,2.1-3.3,2.5c-2.1,0.6-0.4-2.2-0.5-3.4c-0.5,0-1.3,1.1-1.7,1.5c-0.3-1.1,0.5-2,1.3-2.9c0.4-0.4,1.1-1.6,1.8-1.4
	C241.5,78.8,241.6,80.3,241,80.9z"/>
<path class="st7" d="M254.2,81.7c0.6,0-0.7,1.6-1.3,1.7c-1.8,0.4-1.8-2.1-2.4-2.1c-1.5,0-4.1,6.6-4.1,1.4c0.1,0-0.6,0.2-0.5,0.2
	c-0.9,0,2.7-3.7,2.8-3.8c0.9-0.7,1.7-1.5,2.4-2.3c0.7-1,0.7-3.1,1.7-3.8c2.6-1.9,0.4,2.9,0,4.1C251.9,79.5,251.1,81.7,254.2,81.7z
	 M250.6,79c-0.8,0-2.7,3.3-2.7,3.8C249,82.8,250.5,79.8,250.6,79z"/>
<path class="st7" d="M260.2,61.1c3.3-1.2,20.3-4.2,15.6,4.2c-1.4,2.5-5,4.3-7.4,5.7c-1.5,0.9-3.6,1.4-2.2,3c1,1.1,4.7,1.6,6.1,2.4
	c5.3,2.9,1.7,6-2.4,7.5c-1.7,0.6-3.9,0.8-5.5,1.5c-0.5,0.2-1,0.5-1.3,0.6c-0.4,0.2,0.1,0.8-0.8,0.9c-0.8,0.1-0.6-0.5-1.1-0.6
	c0.3,0.1-1.6-0.6-1.3-0.3c-1.9-1.8-0.2-0.9,0.9-2.5c0.8-1.1,0.5-3.7,0.6-5.3c0-0.9,0.5-1.9,0-2.8c-0.3-0.6-1.4-0.6-1.5-1.2
	c-0.2-1.2,0.4-0.8,0.9-1.7c0.3-0.5,0.7-0.5,1.1-1.2c0.2-0.8,0.3-1.7,0.3-2.5c0.2-1.6,0.7-3.3,1.3-4.8c0.6-1.7,1.1-1.5-1.4-1.1
	C259,63.5,260.4,63.4,260.2,61.1z M266.7,76.9c-2.4-0.4-2.2-1.4-2.7,1.5c-0.3,1.4-0.5,2.9-0.6,4.3c0,0.4,6.3-1.7,6.8-2.1
	C272.7,78.5,268.8,77.5,266.7,76.9z M267.8,62.6c-2.1-0.2-1.8,3.1-2.1,4.5c-0.4,2.2-1.4,3.3,0.7,2.9c1.5-0.3,5.6-3.1,5.9-4.5
	C273.1,62.9,269.8,62.7,267.8,62.6L267.8,62.6z"/>
<path class="st7" d="M284.8,74.2c-0.6,2.1-6.6,5-4.1,6.9c2.8,2.1,4.5-2.1,6.6-2.1c0.5,0,0.1,2-0.1,2.4c-0.6,0.9-3.4,2.4-4.5,2.7
	c-3.2,1-5.6-0.9-5.8-4.1c-0.2-2.7,1.5-5.5,3.5-7.2c1-0.8,2.6-2.2,4-1.4C285.2,71.9,285.8,73.6,284.8,74.2z M282,74.3
	c-0.5,0-2.6,2.3-2.1,2.5C280.9,77.2,282.2,74.3,282,74.3z"/>
<path class="st7" d="M300.9,78.9c0,2-0.3,3.7-2.8,4s-2.7-3.5-3.3-3.5c-1.8,0-6.7,8.5-8.4,3.8c-0.1-1-0.1-2.1,0-3.1
	c0.3-1.6,1.9-2.9,3.1-4s9.4-8.1,8.7-4c-0.2,1-3.5,3.3-4.3,4.1c-1,1-3.8,3.1-3.8,4.6c2.5,0,5.9-7.5,7.7-3.6c0.5,1-0.5,3,1.3,3.2
	C299.9,80.4,300.7,79.6,300.9,78.9z"/>
<path class="st7" d="M317.8,78.7c0.2,0.6,0.3,1.3,0.2,2c-0.5,1.2-2.9,1.8-4,1.7c-1.2-0.1-2.3-0.9-2.9-2c-0.2-0.3-0.4-2.5-0.9-2.5
	c-1.1,0-4,5-5.1,5.9c-0.8,0.6-2.1,1.6-3.2,0.8c-1.4-1,0.2-2.8,0.2-3.9c0-0.4-1.1,0.5-1,0.5c-0.2,0,0-2-0.1-2c0.4-0.8,1.6-1.3,2.2-2
	c1.8-1.8,3.5-3.7,5.4-5.4c1-0.9,2.1-1.3,2.8-2.4c0.5-1.1,0.9-2.3,1.2-3.5c0.5-1.2,2.3-6.5,4-6.5c2.6,0-1,8.4-1.6,9.8
	c-0.9,2.2-1.9,4-1.7,6.4c0.1,0.9,0.2,2.4,0.9,3.1C315.9,80.3,316.4,78.7,317.8,78.7z M310.4,73.3c-1.7,0-5.5,6.5-5.5,7.8
	C306.9,81.1,310.5,74.9,310.4,73.3z"/>
<path class="st7" d="M327.1,72.7c0.1,0.6-0.7,9.3-1.4,9.3c1.5,0,2.4-3.2,3.6-3.2s-1.2,3.8-1.4,4c-1,0.9-3.2,3.2-4.5,3.5
	c-1.8,0.4-2.3-1.2-2.1-3.2c0-0.5-0.3-1.1,0.1-1.5c1.1-1.2,1-0.1,1.8-0.1c0.6,0,1.2-4.6-0.2-4.8c-1.7-0.3-3.4,4.6-5.1,4.6
	c0-2.9,1.9-3.8,3.9-6C322.8,74.2,325.6,70.1,327.1,72.7z"/>
<path d="M101.5,23.1h15.2l1.1,7.5h-9v3h5.8v7.5h-5.7v10.5h-7.4V23.1z"/>
<path d="M121.2,23.1h7.4v28.4h-7.4L121.2,23.1z"/>
<path d="M131.6,23.1h9.8c5.6,0,9.6,3.1,9.6,9.1c0,2.9-1.5,5.5-3.9,7l5.5,12.3h-8.4l-5-11.7h-0.1v11.7h-7.4V23.1H131.6z M139,36.5
	c2.8,0,4.5-0.9,4.5-3.5s-1.7-3.5-4.5-3.5V36.5z"/>
<path d="M154.3,23.1h15.2l1.1,7.5h-9v3h5.8v7.5h-5.8v3h10l-1.9,7.5h-15.4V23.1z"/>
<path d="M228.4,52.1c-8.2,0.2-15-6.4-15.2-14.6s6.4-15,14.6-15.2s15,6.4,15.2,14.6c0,0.1,0,0.2,0,0.3C243,45.4,236.5,52,228.4,52.1z
	 M228.4,29.9c-4-0.2-7.4,3-7.6,7c-0.2,4,3,7.4,7,7.6c4,0.2,7.4-3,7.6-7c0-0.1,0-0.2,0-0.3C235.5,33.3,232.4,30,228.4,29.9
	C228.4,29.9,228.4,29.9,228.4,29.9z"/>
<path d="M245.4,22.9h7.4V41c0,1.9,0.5,3.4,2.3,3.4s2.3-1.5,2.3-3.4V22.9h7.4v19.2c0,6.7-3.5,10-9.8,10s-9.8-3.2-9.8-10V22.9H245.4z"
	/>
<path d="M268.4,22.9h3.3l11,12.5V22.9h7.4v28.4h-3.6l-10.6-12v12.1h-7.4L268.4,22.9L268.4,22.9z"/>
<path d="M292.8,22.9h17.5l0.8,7.2h-5.8v21.3h-7.4V30.1h-5.8L292.8,22.9z"/>
<path d="M318,22.9h8.4l9.6,28.4h-8l-1-3.2h-9.8l-1,3.2h-8L318,22.9z M322,33.2L322,33.2l-2.6,7.9h5.3L322,33.2z"/>
<path d="M337.7,22.9h7.4v28.4h-7.4V22.9z"/>
<path d="M347.8,22.9h3.3l11,12.5V22.9h7.4v28.4h-3.6l-10.7-12.1v12.1h-7.4L347.8,22.9L347.8,22.9z"/>
<path d="M153.8,65.2c-1.8-1.4-4.1-2.2-6.4-2.1c-4,0-7.3,3.3-7.3,7.3c0,4,3.3,7.3,7.3,7.3c0.9,0,1.8-0.2,2.6-0.6v-7h7.4v13.8
	c-3,1-6.1,1.5-9.3,1.5c-8.9,0-15.6-5.3-15.6-14.9c0-8.5,6.2-14.9,15.6-14.9c2.8,0,7.3,1.3,8.9,2.5L153.8,65.2z"/>
<path d="M160.8,56.2H176l1.1,7.5h-9v3h5.8v7.5h-5.8v3h10l-1.9,7.5h-15.4V56.2z"/>
<path d="M183.9,56.2h5.9l5,11.1l5.2-11.1h5.9l3.9,28.4h-7.6l-1.7-11.7h-0.1l-5.7,11.9L189,72.9h-0.1l-1.7,11.7h-7.6L183.9,56.2z"/>
<path d="M225.5,63.6c-1-0.6-2.1-1-3.2-1c-1.5,0-2.8,0.6-2.8,2.3c0,3.4,6.6,3.5,6.6,10.9c0,8.2-5.3,9.6-10.9,9.6
	c-1.6,0-2.8-0.3-3.6-0.3l-0.2-7.9c1.1,0.4,2.3,0.6,3.5,0.6c1.2,0.1,2.2-0.8,2.3-2c0-0.1,0-0.2,0-0.2c0-3.3-6.1-4-6.1-11.2
	c0-1.1,0.3-9,9-9c1.8,0,3.6,0.2,5.4,0.6V63.6z"/>
<path d="M187,23h5.9l5,11.1l5.2-11.1h5.9l3.9,28.4h-7.6l-1.7-11.7h-0.1l-5.7,11.9l-5.7-11.9H192l-1.7,11.7h-7.6L187,23z"/>
</svg>
