<?xml version="1.0" encoding="utf-8"?>
<!-- Generator: Adobe Illustrator 26.0.3, SVG Export Plug-In . SVG Version: 6.00 Build 0)  -->
<svg version="1.1" id="Layer_1" xmlns="http://www.w3.org/2000/svg" xmlns:xlink="http://www.w3.org/1999/xlink" x="0px" y="0px"
	 viewBox="0 0 16 16" style="enable-background:new 0 0 16 16;" xml:space="preserve">
<style type="text/css">
	.st0{fill:none;stroke:#000000;stroke-miterlimit:10;}
</style>
<path d="M8,6.2L7.1,4.4C6.9,4,6.5,3.4,6,2.9C5.4,2.3,4.8,2,4,2C2.3,2,1,3.3,1,4.9C1,6.1,1.6,7,2.9,8.3C3.2,8.6,3.6,9,4,9.4
	c1.1,1,2.5,2.3,4,4.1c1.5-1.7,2.9-3,4-4.1c0.4-0.4,0.8-0.8,1.1-1.1C14.4,7,15,6.1,15,4.9C15,3.3,13.7,2,12,2c-0.8,0-1.4,0.3-2,0.9
	C9.5,3.4,9.1,4,8.9,4.4L8,6.2z M8.4,14.5c-0.2,0.2-0.5,0.2-0.7,0.1c0,0,0,0-0.1-0.1c-1.6-1.9-3-3.3-4.2-4.4C1.3,8.2,0,7,0,4.9
	C0,2.8,1.8,1,4,1c1.6,0,2.7,1,3.4,2C7.7,3.4,7.9,3.7,8,4c0.2-0.3,0.4-0.7,0.6-1c0.7-1,1.8-2,3.4-2c2.2,0,4,1.8,4,3.9
	c0,2.1-1.3,3.3-3.4,5.2C11.4,11.3,10,12.6,8.4,14.5L8.4,14.5z"/>
<circle class="st0" cx="8" cy="2" r="1"/>
</svg>
