<?xml version="1.0" encoding="utf-8"?>
<!-- Generator: Adobe Illustrator 26.0.3, SVG Export Plug-In . SVG Version: 6.00 Build 0)  -->
<svg version="1.1" id="Layer_1" xmlns="http://www.w3.org/2000/svg" xmlns:xlink="http://www.w3.org/1999/xlink" x="0px" y="0px"
	 viewBox="0 0 16 16" style="enable-background:new 0 0 16 16;" xml:space="preserve">
<style type="text/css">
	.st0{fill:none;stroke:#000000;stroke-width:0.5;stroke-miterlimit:10;}
</style>
<path d="M8,4L7.3,3.3c-1.7-1.7-4.8-1.1-5.9,1c-0.5,1-0.6,2.4,0.3,4.2c0.9,1.7,2.8,3.8,6.3,6.1c3.5-2.3,5.4-4.3,6.3-6.1
	c1-1.8,0.8-3.2,0.3-4.2c-1.1-2.1-4.2-2.7-5.9-1L8,4z M8,15.7C-7.3,6,3.3-1.5,7.8,2.5C7.9,2.5,7.9,2.6,8,2.6c0.1-0.1,0.1-0.1,0.2-0.2
	C12.7-1.5,23.3,6,8,15.7z"/>
<ellipse class="st0" cx="8" cy="1.4" rx="1" ry="1.1"/>
</svg>
