<svg id="Layer_1" data-name="Layer 1" xmlns="http://www.w3.org/2000/svg" viewBox="0 0 87.25 72.51"><defs><style>.cls-1{fill:#ed1c24;}.cls-2{fill:#f6871f;}.cls-3{fill:#9f0c10;}.cls-4{fill:#a50d12;}.cls-5{fill:#ffcd05;}.cls-6{fill:#faac56;}.cls-7{fill:#7f1013;}</style></defs><path class="cls-1" d="M19.94,64.38c0-2.59,4-14.84-.35-13.55C14.93,52.3,15.28,63.43,19.94,64.38Z"/><path class="cls-2" d="M16.23,53.68c1.38,3.45,3.27,7.51,3.53,11.31a12.88,12.88,0,0,1-2.24-1.56C17.61,63.43,14.41,58.6,16.23,53.68Z"/><path class="cls-3" d="M51,34.35C51.52,37.54,61.19,46,63.61,43c1.12-1.38-3.28-6.82-4.15-7.42C58.51,34.78,51,31.85,51,34.35Z"/><path class="cls-1" d="M36.94,28.05c2.67-1.38,8-9.93,3.62-11.91C36.51,14.24,34.09,25.89,36.94,28.05Z"/><path class="cls-1" d="M55.75,72.24c2.85-.95,8.11-1.21,10.53-2.85,3.37-2.33,3.88-8.37,3.11-11.91-.78-3.71-2-7.51-4.66-4.58C62.31,55.58,62.05,60,59,62.74c2.5-3.88,4.57-9.49,3.36-14.15-2.07-7.77-11-7-15.36-12.69-2.59-3.36-3.37-11.91-6-3.45a20.75,20.75,0,0,0-.77,9.75c0-.08,2.24,6.22,2.16,6.39-1.21,1.9-7.08-6.91-8.29-6.65-3.37.52,2.85,14.42,2.85,14.42-2.94,2.59-5-9.24-8.11-5.79-2.59,2.85,3.62,14.07,3.79,13.9-3.28,1.9-5.18-5.27-7.42-4.49-5.7,1.9,7.51,9.49,7.85,9.67,3.11,1.38,4.58,2.41,8,2.67A119.58,119.58,0,0,0,55.75,72.24Z"/><path class="cls-4" d="M58.77,64.3c-.43.77-4.14,6-3.88,6.38,2.93,3.63,11.56-4.83,12.34-6.73.69-1.73,2.07-10-.43-11.05C65.5,52.39,60.67,62.83,58.77,64.3Z"/><path class="cls-5" d="M50.66,66.8C54,59,52.82,50.06,47.21,45.4c.52,1.81,2.24,8.11,2.24,9.32C49.45,57.82,51.18,64,50.66,66.8Z"/><path class="cls-6" d="M47.12,38.15a11.18,11.18,0,0,0,4.49,4.66c.69.51,7.68,4,6,4.74-1.55.35-2.07-2.07-3.8-1.64-.6,1,4.15,8.63,3.11,9.76.78-.87-.09-5,1-5.36,1.55-.43.77,10.28.51,10.19,3.71,1.47,2.85-13.38,2.08-14.85C57.74,40.22,50.92,42.46,47.12,38.15Z"/><path class="cls-4" d="M47.81,71.55c1.21-1,5-7.34,2.07-7.94C47.55,63.17,46.78,71.2,47.81,71.55Z"/><path class="cls-6" d="M44.1,43.41c2.42,5,2.42,8.46,2.5,13.9.09,1.89,1.3,14.06,1.3,14.06,4.23.26,8.2-14.32,8.2-17.17a14.92,14.92,0,0,1,.69,7.25c-.35,1.9-4.58,7.16-4.14,8.37.94,2.76,11.21-4.23,12.42-5.26-3.54,7.07-11.82,7.85-18.72,7.85-1.82-1.38-4.75-2.25-7-3.19.35.17-.25-1.39-1.12-1.64-1.38-.52-4.31-.26-5.26-1.56,1.29-.43,1.81-.52,1.81-2.24A3.58,3.58,0,0,0,37.54,65c-1.29-2.42-1.12-5-3.28-7.17A27.55,27.55,0,0,1,40,62.05c1.38,1.3,2.93,4.92,4.49,5.7.17.08-1.21-9.75-1.3-11.31S43.41,44.1,44.1,43.41Z"/><path class="cls-3" d="M36,63.86c.43-2.76-2.07-8.19-5.27-8.19C28.39,56.27,35.56,65.07,36,63.86Z"/><path class="cls-3" d="M37.2,46.35c-.18-.18-1.64-1.64-1.9-1.13-.35.69,4.23,16,5.18,16.31,1.9.69.34-8.37.26-8.37-.52-2.59.34-2.5-1.21-4.57C38.92,47.64,37.8,47.29,37.2,46.35Z"/><path class="cls-7" d="M43,28c-.78,1.9-2.42,4.58-2.16,6.56.43,3.63,1.64,2.94,4,5.18,3.28,3,6.82,9.23,8,13.55-.43-.86-.17-5-1-6.82-1.3-3.11-3.37-5.69-4.83-8.63C46.52,36.77,43,28,43,28Z"/><path d="M65.68,65c-3.89,3.88-9.15,4.05-13,7.33H87.25L57.91,7.85,50,22.78,37,0,0,72.32H46.69c0-5.43-22.18-.34-21.14-11.39,1.81,2.76,8.63,7,7.16,1.55-1.3-4.57-5.44-7.33-3.28-12.68.69,1.21,6.3,10.61,8.8,6.82-.95,1.46-5.43-14.33-3.79-14,2,.52,6.55,10.79,8.8,5.87.86-1.9-2.33-7.68-2.33-10.09,0-1.73.34-8.29,2.41-9.33-.25.09,2.77,7.25,3.54,8.2,1.64,2.07,3.71,3,6,4.06,5,2.16,8.72,3.8,9.07,9.92.08,2.08-5.53,13.3-5.18,13.64,2.93,2.76,8.89-9.92,9.92-11.31C67.92,57,68.18,62,65.68,65ZM21.49,54.37A39.63,39.63,0,0,0,19.85,64c-6.56-3.71-1-9.06.35-13.38C20.11,50.66,21.58,50.57,21.49,54.37ZM40.91,22.7a14.28,14.28,0,0,1-3.8,5.18C33.05,23,42.12,8.8,40.91,22.7ZM61.79,43.07c-4.23-3.54-9.4-2.51-10.18-9.33C54.37,34,58.08,35,60.15,37c.69.69,3.8,5.61,2.85,6.22A1.54,1.54,0,0,1,61.79,43.07Z"/></svg>